PathFileType	4	(X/Y/Z)	Patient4_TMGait_0pt5_01_left_39.trc.trc
DataRate	CameraRate	NumFrames	NumMarkers	Units	OrigDataRate	OrigDataStartFrame	OrigNumFrames
75.675675675676	75.675675675676	7	33	mm	75.675675675676	18	       141
Frame#	Time	L.ASIS			Sacral			L.Shoulder			Chest			R.Shoulder			Neck			R.ASIS			R.Thigh.Superior			R.Thigh.Lateral			R.Thigh.Inferior			R.Patella			L.Thigh.Superior			L.Thigh.Lateral			L.Thigh.Inferior			L.Patella			L.Shank.Superior			L.Shank.Lateral			L.Shank.Inferior			R.Shank.Superior			R.Shank.Lateral			R.Shank.Inferior			R.Heel			R.Midfoot.Superior			R.Midfoot.Lateral			R.Toe			L.Heel			L.Midfoot.Lateral			L.Midfoot.Superior			L.Toe			L.Elbow			L.Wrist			R.Elbow			R.Wrist			
		X1	Y1	Z1	X2	Y2	Z2	X3	Y3	Z3	X4	Y4	Z4	X5	Y5	Z5	X6	Y6	Z6	X7	Y7	Z7	X8	Y8	Z8	X9	Y9	Z9	X10	Y10	Z10	X11	Y11	Z11	X12	Y12	Z12	X13	Y13	Z13	X14	Y14	Z14	X15	Y15	Z15	X16	Y16	Z16	X17	Y17	Z17	X18	Y18	Z18	X19	Y19	Z19	X20	Y20	Z20	X21	Y21	Z21	X22	Y22	Z22	X23	Y23	Z23	X24	Y24	Z24	X25	Y25	Z25	X26	Y26	Z26	X27	Y27	Z27	X28	Y28	Z28	X29	Y29	Z29	X30	Y30	Z30	X31	Y31	Z31	X32	Y32	Z32	X33	Y33	Z33	

18	52.184642857143	777.231312427019	962.102475300227	368.324729838230	577.478786287805	1006.968658363932	543.846377076923	730.974309058520	1441.174939274621	364.686574716894	849.240758575485	1365.062710288200	511.031880158507	784.546825207974	1429.431174521366	696.620500434412	745.512856556299	1496.231861468694	518.627087518305	810.780008477780	942.406089929504	642.258648742480	816.540061473598	732.838490613995	614.830810965097	717.288348871661	635.240516267231	676.110801706865	780.241102589633	573.597366618263	595.928783576885	766.032725507809	489.557651385479	600.149613916114	849.716622201199	773.663537103196	394.961393979651	798.772821794714	647.073968446717	317.195222205282	901.927918597685	585.907820141934	376.917769480372	929.828589609291	522.058123273208	372.360949668355	914.916209464532	451.829714446258	362.855722004534	851.193746929467	320.215215739678	313.326345564787	942.319209475357	223.855917775027	366.947668352366	734.027889345653	403.437827205254	604.249937150349	657.062382511452	300.764112270215	660.166949804314	699.672534730874	206.590090751803	595.335340289551	562.262245233077	42.786201752837	553.216490973192	733.432194140256	97.447534688243	595.307375730370	643.602589465714	35.940211117096	630.384338206253	851.607189545699	45.251238787697	624.903381738675	864.158321295160	40.822676818904	408.430446276259	937.145703668232	46.475981380564	327.554906505529	1004.698413716181	127.598859375554	344.520980635624	1139.050333957042	103.773003306586	318.434704429916	619.189671629253	1102.006050814944	260.143413436469	600.052775032980	842.751151309993	266.582912362292	922.293476987190	1114.754996200521	802.267833256283	1177.683305608050	1090.424800628054	774.420222593350	
19	52.197857142857	776.943456597672	961.073666481419	367.006088996134	577.483620776838	1006.053145149123	543.030443627407	729.221730496904	1440.248463289184	362.885151201788	848.191417126771	1364.625430563218	508.901842642348	783.917084761147	1429.066357688955	694.652773720382	744.239809360146	1495.454187651296	516.652075729084	810.803246789524	941.855213228201	641.103339293545	814.928798542115	731.815491132496	613.735650059742	715.108282182989	634.829472352929	675.497702513269	777.191262450437	572.734306565094	595.091238259610	762.320474935844	488.662201859313	599.304357890848	850.379905899333	773.312893979415	394.119764381815	798.905166661319	645.760167485853	317.362563166613	902.668894332104	585.248402230044	376.215595654801	930.360827233127	521.070699378618	372.133484236191	915.054715875105	450.449313272136	363.123445261038	850.344712710896	319.189178068715	314.267766837104	940.836725395648	222.451160376076	367.925836390556	729.733434850010	402.736302245736	603.646110636159	652.280549586672	300.597470944516	659.983788926730	693.892812585736	206.131820911009	594.979254992897	555.534814711296	42.681590864350	553.217885628676	726.607621951703	97.330161633131	595.139512756927	636.849625783197	35.879766691112	630.417743484725	844.868387102561	45.345418313501	624.899527233694	861.360449140061	40.821600067236	410.235100726868	933.953329777611	45.449704537462	328.970472339099	1002.623058828243	125.480134757459	345.571205684566	1136.396207846313	99.778935562173	318.813209012728	614.307897833023	1102.228940420087	259.388931075265	593.945992924190	843.073136303135	266.008268927543	922.308349450815	1114.774430065712	800.270198819444	1177.725127864519	1095.980036345692	771.328592035846	
20	52.211071428571	776.948337143876	959.939036174897	365.632538097324	577.639219997688	1005.012717331974	541.970042443896	727.555051673081	1439.172782388934	360.882962601328	847.196823821905	1364.133730743040	506.654918737043	783.197198274294	1428.654330860417	692.532705551254	742.963724559065	1494.581068206553	514.469539161177	810.939110164579	941.195150135834	639.893707022002	813.636355733268	730.715091105220	612.577241929380	713.310181723976	634.286613451527	674.749594601147	774.582132821768	571.760288392096	594.109759242321	759.026460611492	487.625081428219	598.276432367694	851.336634901201	772.759242348364	393.306152095749	799.329369236375	644.351764233026	317.504745528105	903.522164497355	584.418357241580	375.683717869473	930.827711075759	519.670151414651	372.055149695527	914.900127824443	448.577957259444	363.505979008123	848.692937444320	317.957067931324	315.195935025095	938.013863836789	220.437591498815	369.067754174922	725.855359136066	401.881383692839	602.888221492348	647.848144274718	300.354708465811	659.717485677341	688.284580968875	205.562153226031	594.520907840660	548.818105097332	42.560165774009	553.215352484113	719.792611348759	97.183121113078	594.945779921214	630.102793472705	35.808099380741	630.445476050358	838.140941554431	45.392798212853	624.893837541333	856.315584340267	40.617788942256	411.939212597924	928.616816412234	44.111892595407	330.357484846696	998.773388890466	122.616963405384	346.910106561020	1131.866635195811	94.432883987291	319.525490326192	609.998198653682	1102.112048855179	258.521722609596	588.912814954874	842.997537274515	265.122515472204	921.764546619234	1114.427167839203	798.186326593023	1177.065624953269	1100.347217097881	768.261357168141	
21	52.224285714286	777.234323003156	958.717260194766	364.211326580612	577.932884483418	1003.863219973244	540.665245182813	726.019623298273	1437.956942032258	358.674007096520	846.281300997102	1363.593576470631	504.300780740658	782.396015926784	1428.208510727455	690.259715471360	741.713373266726	1493.627586777804	512.072251377551	811.195974000078	940.430255445750	638.623749033497	812.707736640227	729.540370079982	611.356784022703	711.928810719393	633.606759038278	673.844281262856	772.456144249097	570.669648809400	592.970372349604	756.192830641812	486.435335229934	597.047352893286	852.474456168691	771.946164288638	392.510797141445	799.907303058751	642.867988672365	317.580279759715	904.335320928952	583.400152282624	375.328410823855	931.067591039843	517.896762264776	372.149054735314	914.398240597284	446.306650108644	363.974553639760	846.397730887119	316.511474840899	316.055630546332	934.165034773130	217.947799020232	370.325439717168	722.418536962640	400.867542414932	601.959574738990	643.776708061560	300.045882055429	659.347586418543	682.858781387764	204.884895208420	593.957995196018	542.117026751109	42.429601845972	553.212576103003	713.002924264292	97.014089973128	594.738637624853	623.369401834236	35.727548948413	630.467575314836	831.431040751228	45.373606130121	624.889150180810	849.586837274221	40.236100781834	413.455858602895	921.742638424267	42.566313324680	331.671971037347	993.627828472302	119.206623953812	348.523033469144	1125.990322379945	88.111633897869	320.653328174788	606.364206743064	1101.624131147423	257.515212043679	584.980643214866	842.505389040575	263.946241062645	920.660580493411	1113.721173925195	796.017500840585	1175.756242816248	1103.504044511810	765.229109293468	
22	52.237500000000	777.771499911926	957.443924779500	362.744450071990	578.342361226951	1002.635325509640	539.124005570075	724.656927567737	1436.622701972589	356.259222658804	845.468985230975	1363.018637680603	501.850069932265	781.534611308877	1427.752245627299	687.836203123522	740.521838847566	1492.619975765916	509.458746219104	811.574177717740	939.573623190220	637.279524140729	812.163528346855	728.303713036587	610.060371258117	710.977038956716	632.796077296077	672.757289417670	770.833949210466	569.467859755702	591.659083924161	753.843191200015	485.088892718127	595.603946012289	853.695013826486	770.862684176154	391.709713321919	800.507623083673	641.347344548709	317.555936573015	904.991417349368	582.212872204257	375.130095992088	930.967190624796	515.832879787798	372.405891781635	913.533540174458	443.761269158894	364.480922994496	843.638845890832	314.885458707938	316.801047892510	929.626070616513	215.154024863587	371.635578366882	719.425392845856	399.702824163573	600.850678160303	640.055304954780	299.693579815273	658.854358924957	677.616969341515	204.116975143890	593.294742556443	535.436466608445	42.306038184170	553.213605672780	706.256140038741	96.835521552158	594.533524171211	616.657259355560	35.644651624916	630.483698746077	824.745157652661	45.269025208217	624.888484588553	841.765470682012	39.734174452189	414.735776597279	913.929462006182	40.946764461130	332.875401841189	987.656669074512	115.493257386964	350.354642331412	1119.278614847084	81.255956446593	322.179078916434	603.505292270096	1100.749952530394	256.338193500758	582.184537514420	841.594898948127	262.493828745492	918.992619127826	1112.675245154399	793.763636071034	1173.840638802791	1105.433208391686	762.244348248893	
23	52.250714285714	778.513131533845	956.170148543245	361.227162459012	578.838227697543	1001.374021752459	537.362492120040	723.500295942949	1435.205107059176	353.648729813523	844.781732116077	1362.430207267443	499.314659396876	780.646270535450	1427.317642338948	685.269396686164	739.423917493437	1491.594839426111	506.636432899822	812.063546561078	938.648060085307	635.840669040843	811.996227255231	727.028387865774	608.662286817581	710.443937127406	631.873587357224	671.465501225167	769.714935301824	568.173801510872	590.166600849665	751.983633303938	483.590505417619	593.943814847230	854.919830634184	769.547313477959	390.867827765485	801.025715574244	639.848055911912	317.405633147566	905.421718094826	580.912300506105	375.043855218778	930.476408226517	513.596077800696	372.782792496491	912.332653180652	441.090074908196	364.962791239864	840.600685422591	313.148731942644	317.394015960773	924.717547742458	212.245637036327	372.924748695589	716.857924763915	398.410124111794	599.562514113927	636.653322240180	299.332874049642	658.222266277256	672.552879810000	203.289097760388	592.542499197734	528.781741886657	42.216932484298	553.222809146600	699.569908747395	96.662992231118	594.344908409318	609.974706717454	35.571606060929	630.492795879904	818.090259242401	45.062706312288	624.894867470110	833.406534601741	39.182625265572	415.763483322244	905.708867455331	39.390828179218	333.935339759599	981.271393149630	111.737628314267	352.313746289226	1112.176112715782	74.327438918637	323.997280431601	601.509461258845	1099.493337107510	254.960179852103	580.563768676490	840.281877905306	260.771391722330	916.755714196324	1111.319171138571	791.425156602058	1171.353509851347	1106.118965327335	759.321591713358	
24	52.263928571429	779.399407729115	954.958873249033	359.647148687253	579.385934482880	1000.136363991009	535.403390065876	722.571546184753	1433.751799467980	350.863018325460	844.237042161088	1361.856264190816	496.707705729743	779.774545657854	1426.943162675437	682.572562643720	738.453102554426	1490.597064451599	503.623833377550	812.642183640628	937.686302434019	634.283106271513	812.169945506684	725.749070433877	607.131265751101	710.295198330321	630.871696752726	669.951565830131	769.079089851650	566.820061351708	588.492681895116	750.606189342889	481.955079190198	592.080728500979	856.092051010488	768.084310392347	389.943328117319	801.398496527494	638.444349007635	317.107783393931	905.608762337788	579.583043052553	375.003389818314	929.609720283816	511.325642153929	373.209161788775	910.858035283337	438.446960880802	365.352707510512	837.453157141532	311.398732084628	317.801643192114	919.707744001082	209.405937171346	374.116816924596	714.681877197535	397.026566683372	598.108802176627	633.525820406011	299.009829335223	657.443511002987	667.654991636842	202.444955996208	591.719798678449	522.158869422856	42.203388342929	553.244826124875	692.960174244114	96.513128649490	594.182606019628	603.330339976505	35.527190404660	630.492820221128	811.473790403118	44.742486525639	624.911029250444	824.969728137303	38.648564122681	416.548134905711	897.497269223021	38.015637937046	334.826317794035	974.783765298140	108.185060950653	354.284632044904	1105.021645680143	67.760710660244	325.944233128187	600.446338877469	1097.879456869178	253.356320078192	580.157859151243	838.600300358905	258.777056737606	913.945702788681	1109.693704532839	789.004904032767	1168.319494803872	1105.545255559371	756.476240826630	
